<svg xmlns="http://www.w3.org/2000/svg" width="1440" height="900" viewBox="0 0 1440 900">
  <title>14 Sound – list</title>
  <rect x="0" y="0" width="1440" height="900" rx="0" fill="#F7FBF1" stroke="none" stroke-width="1"/>
  <rect x="0" y="0" width="1440" height="900" rx="0" fill="#EBEFE6" stroke="none" stroke-width="1"/>
  <circle cx="40.0" cy="32.0" r="20.0" fill="#F7FBF1" stroke="#C2C9BD"/>
  <rect x="31.0" y="23.0" width="18" height="18" rx="4" fill="none" stroke="#C2C9BD" stroke-width="1"/>
  <line x1="35.0" y1="27.0" x2="45.0" y2="37.0" stroke="#C2C9BD" stroke-width="1"/>
  <line x1="45.0" y1="27.0" x2="35.0" y2="37.0" stroke="#C2C9BD" stroke-width="1"/>
  <rect x="400.0" y="12" width="640" height="40" rx="20" fill="#F7FBF1" stroke="#C2C9BD" stroke-width="1"/>
  <rect x="414.0" y="22" width="20" height="20" rx="4" fill="none" stroke="#C2C9BD" stroke-width="1"/>
  <line x1="418.0" y1="26" x2="430.0" y2="38" stroke="#C2C9BD" stroke-width="1"/>
  <line x1="430.0" y1="26" x2="418.0" y2="38" stroke="#C2C9BD" stroke-width="1"/>
  <text x="446.0" y="37" font-family="Work Sans, Roboto, Arial, sans-serif" font-size="15" font-weight="400" fill="#424940" text-anchor="start">Search Sound, or ? for more</text>
  <rect x="1006.0" y="22" width="20" height="20" rx="4" fill="none" stroke="#C2C9BD" stroke-width="1"/>
  <line x1="1010.0" y1="26" x2="1022.0" y2="38" stroke="#C2C9BD" stroke-width="1"/>
  <line x1="1022.0" y1="26" x2="1010.0" y2="38" stroke="#C2C9BD" stroke-width="1"/>
  <rect x="1060" y="14" width="196" height="36" rx="18" fill="#F7FBF1" stroke="#C2C9BD" stroke-width="1"/>
  <rect x="1072" y="23" width="18" height="18" rx="4" fill="none" stroke="#C2C9BD" stroke-width="1"/>
  <line x1="1076" y1="27" x2="1086" y2="37" stroke="#C2C9BD" stroke-width="1"/>
  <line x1="1086" y1="27" x2="1076" y2="37" stroke="#C2C9BD" stroke-width="1"/>
  <text x="1098" y="37" font-family="Work Sans, Roboto, Arial, sans-serif" font-size="14" font-weight="500" fill="#181D17" text-anchor="start">Demo Project</text>
  <rect x="1202" y="23" width="42" height="18" rx="9" fill="#BCEBF1" stroke="none" stroke-width="1"/>
  <text x="1223" y="36" font-family="Work Sans, Roboto, Arial, sans-serif" font-size="9" font-weight="700" fill="#181D17" text-anchor="middle">Labor</text>
  <circle cx="1286.0" cy="32.0" r="20.0" fill="#F7FBF1" stroke="#C2C9BD"/>
  <rect x="1277.0" y="23.0" width="18" height="18" rx="4" fill="none" stroke="#C2C9BD" stroke-width="1"/>
  <line x1="1281.0" y1="27.0" x2="1291.0" y2="37.0" stroke="#C2C9BD" stroke-width="1"/>
  <line x1="1291.0" y1="27.0" x2="1281.0" y2="37.0" stroke="#C2C9BD" stroke-width="1"/>
  <circle cx="1334.0" cy="32.0" r="20.0" fill="#F7FBF1" stroke="#C2C9BD"/>
  <rect x="1325.0" y="23.0" width="18" height="18" rx="4" fill="none" stroke="#C2C9BD" stroke-width="1"/>
  <line x1="1329.0" y1="27.0" x2="1339.0" y2="37.0" stroke="#C2C9BD" stroke-width="1"/>
  <line x1="1339.0" y1="27.0" x2="1329.0" y2="37.0" stroke="#C2C9BD" stroke-width="1"/>
  <circle cx="1382.0" cy="32.0" r="20.0" fill="#F7FBF1" stroke="#C2C9BD"/>
  <rect x="1373.0" y="23.0" width="18" height="18" rx="4" fill="none" stroke="#C2C9BD" stroke-width="1"/>
  <line x1="1377.0" y1="27.0" x2="1387.0" y2="37.0" stroke="#C2C9BD" stroke-width="1"/>
  <line x1="1387.0" y1="27.0" x2="1377.0" y2="37.0" stroke="#C2C9BD" stroke-width="1"/>
  <rect x="28" y="90" width="24" height="24" rx="4" fill="none" stroke="#C2C9BD" stroke-width="1"/>
  <line x1="32" y1="94" x2="48" y2="110" stroke="#C2C9BD" stroke-width="1"/>
  <line x1="48" y1="94" x2="32" y2="110" stroke="#C2C9BD" stroke-width="1"/>
  <text x="66" y="107" font-family="Work Sans, Roboto, Arial, sans-serif" font-size="16" font-weight="400" fill="#424940" text-anchor="start">Attributes</text>
  <rect x="28" y="154" width="24" height="24" rx="4" fill="none" stroke="#C2C9BD" stroke-width="1"/>
  <line x1="32" y1="158" x2="48" y2="174" stroke="#C2C9BD" stroke-width="1"/>
  <line x1="48" y1="158" x2="32" y2="174" stroke="#C2C9BD" stroke-width="1"/>
  <text x="66" y="171" font-family="Work Sans, Roboto, Arial, sans-serif" font-size="16" font-weight="400" fill="#424940" text-anchor="start">Items</text>
  <rect x="28" y="218" width="24" height="24" rx="4" fill="none" stroke="#C2C9BD" stroke-width="1"/>
  <line x1="32" y1="222" x2="48" y2="238" stroke="#C2C9BD" stroke-width="1"/>
  <line x1="48" y1="222" x2="32" y2="238" stroke="#C2C9BD" stroke-width="1"/>
  <text x="66" y="235" font-family="Work Sans, Roboto, Arial, sans-serif" font-size="16" font-weight="400" fill="#424940" text-anchor="start">Notifications</text>
  <rect x="28" y="282" width="24" height="24" rx="4" fill="none" stroke="#C2C9BD" stroke-width="1"/>
  <line x1="32" y1="286" x2="48" y2="302" stroke="#C2C9BD" stroke-width="1"/>
  <line x1="48" y1="286" x2="32" y2="302" stroke="#C2C9BD" stroke-width="1"/>
  <text x="66" y="299" font-family="Work Sans, Roboto, Arial, sans-serif" font-size="16" font-weight="400" fill="#424940" text-anchor="start">Fonts</text>
  <rect x="12" y="332" width="156" height="52" rx="26" fill="#D5E8CF" stroke="none" stroke-width="1"/>
  <rect x="28" y="346" width="24" height="24" rx="4" fill="#3B4B39" stroke="#C2C9BD" stroke-width="1"/>
  <line x1="32" y1="350" x2="48" y2="366" stroke="#C2C9BD" stroke-width="1"/>
  <line x1="48" y1="350" x2="32" y2="366" stroke="#C2C9BD" stroke-width="1"/>
  <text x="66" y="363" font-family="Work Sans, Roboto, Arial, sans-serif" font-size="16" font-weight="600" fill="#181D17" text-anchor="start">Sound</text>
  <rect x="180" y="64" width="1280" height="856" rx="16" fill="#F7FBF1" stroke="none" stroke-width="1"/>
  <text x="196" y="103" font-family="Work Sans, Roboto, Arial, sans-serif" font-size="22" font-weight="500" fill="#181D17" text-anchor="start">Sound (5)</text>
  <rect x="1344" y="76" width="80" height="40" rx="20.0" fill="#39693B" stroke="#39693B" stroke-width="1"/>
  <rect x="1358" y="87.0" width="18" height="18" rx="4" fill="none" stroke="#C2C9BD" stroke-width="1"/>
  <line x1="1362" y1="91.0" x2="1372" y2="101.0" stroke="#C2C9BD" stroke-width="1"/>
  <line x1="1372" y1="91.0" x2="1362" y2="101.0" stroke="#C2C9BD" stroke-width="1"/>
  <text x="1394.0" y="101.0" font-family="Work Sans, Roboto, Arial, sans-serif" font-size="14" font-weight="500" fill="#FFFFFF" text-anchor="middle">Add</text>
  <rect x="1224" y="76" width="112" height="40" rx="20.0" fill="#D5E8CF" stroke="#D5E8CF" stroke-width="1"/>
  <rect x="1238" y="87.0" width="18" height="18" rx="4" fill="none" stroke="#C2C9BD" stroke-width="1"/>
  <line x1="1242" y1="91.0" x2="1252" y2="101.0" stroke="#C2C9BD" stroke-width="1"/>
  <line x1="1252" y1="91.0" x2="1242" y2="101.0" stroke="#C2C9BD" stroke-width="1"/>
  <text x="1290.0" y="101.0" font-family="Work Sans, Roboto, Arial, sans-serif" font-size="14" font-weight="500" fill="#3B4B39" text-anchor="middle">Refresh</text>
  <rect x="196.0" y="136" width="401.3333333333333" height="148" rx="12" fill="#F1F5EC" stroke="none" stroke-width="1"/>
  <text x="212.0" y="166" font-family="Work Sans, Roboto, Arial, sans-serif" font-size="16" font-weight="700" fill="#181D17" text-anchor="start">UI Click</text>
  <rect x="212.0" y="178" width="136.2" height="24" rx="6" fill="#E0E4DB" stroke="none" stroke-width="1"/>
  <rect x="218.0" y="183" width="14" height="14" rx="4" fill="none" stroke="#C2C9BD" stroke-width="1"/>
  <line x1="222.0" y1="187" x2="228.0" y2="193" stroke="#C2C9BD" stroke-width="1"/>
  <line x1="228.0" y1="187" x2="222.0" y2="193" stroke="#C2C9BD" stroke-width="1"/>
  <text x="238.0" y="194" font-family="monospace" font-size="12" fill="#39693B">demo:ui_click</text>
  <text x="537.3333333333333" y="168" font-family="Work Sans, Roboto, Arial, sans-serif" font-size="20" font-weight="400" fill="#424940" text-anchor="middle">⋮</text>
  <rect x="557.3333333333333" y="152" width="22" height="22" rx="4" fill="#FFDAD6" stroke="#C2C9BD" stroke-width="1"/>
  <line x1="561.3333333333333" y1="156" x2="575.3333333333333" y2="170" stroke="#C2C9BD" stroke-width="1"/>
  <line x1="575.3333333333333" y1="156" x2="561.3333333333333" y2="170" stroke="#C2C9BD" stroke-width="1"/>
  <line x1="212.0" y1="242" x2="581.3333333333333" y2="242" stroke="#E0E4DB" stroke-width="1"/>
  <rect x="212.0" y="254" width="16" height="16" rx="4" fill="none" stroke="#C2C9BD" stroke-width="1"/>
  <line x1="216.0" y1="258" x2="224.0" y2="266" stroke="#C2C9BD" stroke-width="1"/>
  <line x1="224.0" y1="258" x2="216.0" y2="266" stroke="#C2C9BD" stroke-width="1"/>
  <text x="236.0" y="267" font-family="Work Sans, Roboto, Arial, sans-serif" font-size="12" font-weight="400" fill="#424940" text-anchor="start">Edited 5 min ago</text>
  <rect x="609.3333333333333" y="136" width="401.3333333333333" height="148" rx="12" fill="#F1F5EC" stroke="none" stroke-width="1"/>
  <text x="625.3333333333333" y="166" font-family="Work Sans, Roboto, Arial, sans-serif" font-size="16" font-weight="700" fill="#181D17" text-anchor="start">Level Up Jingle</text>
  <rect x="625.3333333333333" y="178" width="188.0" height="24" rx="6" fill="#E0E4DB" stroke="none" stroke-width="1"/>
  <rect x="631.3333333333333" y="183" width="14" height="14" rx="4" fill="none" stroke="#C2C9BD" stroke-width="1"/>
  <line x1="635.3333333333333" y1="187" x2="641.3333333333333" y2="193" stroke="#C2C9BD" stroke-width="1"/>
  <line x1="641.3333333333333" y1="187" x2="635.3333333333333" y2="193" stroke="#C2C9BD" stroke-width="1"/>
  <text x="651.3333333333333" y="194" font-family="monospace" font-size="12" fill="#39693B">demo:level_up_jingle</text>
  <text x="950.6666666666665" y="168" font-family="Work Sans, Roboto, Arial, sans-serif" font-size="20" font-weight="400" fill="#424940" text-anchor="middle">⋮</text>
  <rect x="970.6666666666665" y="152" width="22" height="22" rx="4" fill="#FFDAD6" stroke="#C2C9BD" stroke-width="1"/>
  <line x1="974.6666666666665" y1="156" x2="988.6666666666665" y2="170" stroke="#C2C9BD" stroke-width="1"/>
  <line x1="988.6666666666665" y1="156" x2="974.6666666666665" y2="170" stroke="#C2C9BD" stroke-width="1"/>
  <line x1="625.3333333333333" y1="242" x2="994.6666666666665" y2="242" stroke="#E0E4DB" stroke-width="1"/>
  <rect x="625.3333333333333" y="254" width="16" height="16" rx="4" fill="none" stroke="#C2C9BD" stroke-width="1"/>
  <line x1="629.3333333333333" y1="258" x2="637.3333333333333" y2="266" stroke="#C2C9BD" stroke-width="1"/>
  <line x1="637.3333333333333" y1="258" x2="629.3333333333333" y2="266" stroke="#C2C9BD" stroke-width="1"/>
  <text x="649.3333333333333" y="267" font-family="Work Sans, Roboto, Arial, sans-serif" font-size="12" font-weight="400" fill="#424940" text-anchor="start">Edited 5 min ago</text>
  <rect x="1022.6666666666666" y="136" width="401.3333333333333" height="148" rx="12" fill="#F1F5EC" stroke="none" stroke-width="1"/>
  <text x="1038.6666666666665" y="166" font-family="Work Sans, Roboto, Arial, sans-serif" font-size="16" font-weight="700" fill="#181D17" text-anchor="start">Boss Roar</text>
  <rect x="1038.6666666666665" y="178" width="143.60000000000002" height="24" rx="6" fill="#E0E4DB" stroke="none" stroke-width="1"/>
  <rect x="1044.6666666666665" y="183" width="14" height="14" rx="4" fill="none" stroke="#C2C9BD" stroke-width="1"/>
  <line x1="1048.6666666666665" y1="187" x2="1054.6666666666665" y2="193" stroke="#C2C9BD" stroke-width="1"/>
  <line x1="1054.6666666666665" y1="187" x2="1048.6666666666665" y2="193" stroke="#C2C9BD" stroke-width="1"/>
  <text x="1064.6666666666665" y="194" font-family="monospace" font-size="12" fill="#39693B">demo:boss_roar</text>
  <text x="1364.0" y="168" font-family="Work Sans, Roboto, Arial, sans-serif" font-size="20" font-weight="400" fill="#424940" text-anchor="middle">⋮</text>
  <rect x="1384.0" y="152" width="22" height="22" rx="4" fill="#FFDAD6" stroke="#C2C9BD" stroke-width="1"/>
  <line x1="1388.0" y1="156" x2="1402.0" y2="170" stroke="#C2C9BD" stroke-width="1"/>
  <line x1="1402.0" y1="156" x2="1388.0" y2="170" stroke="#C2C9BD" stroke-width="1"/>
  <text x="1038.6666666666665" y="228" font-family="Work Sans, Roboto, Arial, sans-serif" font-size="12" font-weight="400" fill="#424940" text-anchor="start">Phase 2 only</text>
  <line x1="1038.6666666666665" y1="242" x2="1408.0" y2="242" stroke="#E0E4DB" stroke-width="1"/>
  <rect x="1038.6666666666665" y="254" width="16" height="16" rx="4" fill="none" stroke="#C2C9BD" stroke-width="1"/>
  <line x1="1042.6666666666665" y1="258" x2="1050.6666666666665" y2="266" stroke="#C2C9BD" stroke-width="1"/>
  <line x1="1050.6666666666665" y1="258" x2="1042.6666666666665" y2="266" stroke="#C2C9BD" stroke-width="1"/>
  <text x="1062.6666666666665" y="267" font-family="Work Sans, Roboto, Arial, sans-serif" font-size="12" font-weight="400" fill="#424940" text-anchor="start">Edited 5 min ago</text>
  <rect x="196.0" y="296" width="401.3333333333333" height="148" rx="12" fill="#F1F5EC" stroke="none" stroke-width="1"/>
  <text x="212.0" y="326" font-family="Work Sans, Roboto, Arial, sans-serif" font-size="16" font-weight="700" fill="#181D17" text-anchor="start">Coin Pickup</text>
  <rect x="212.0" y="338" width="158.4" height="24" rx="6" fill="#E0E4DB" stroke="none" stroke-width="1"/>
  <rect x="218.0" y="343" width="14" height="14" rx="4" fill="none" stroke="#C2C9BD" stroke-width="1"/>
  <line x1="222.0" y1="347" x2="228.0" y2="353" stroke="#C2C9BD" stroke-width="1"/>
  <line x1="228.0" y1="347" x2="222.0" y2="353" stroke="#C2C9BD" stroke-width="1"/>
  <text x="238.0" y="354" font-family="monospace" font-size="12" fill="#39693B">demo:coin_pickup</text>
  <text x="537.3333333333333" y="328" font-family="Work Sans, Roboto, Arial, sans-serif" font-size="20" font-weight="400" fill="#424940" text-anchor="middle">⋮</text>
  <rect x="557.3333333333333" y="312" width="22" height="22" rx="4" fill="#FFDAD6" stroke="#C2C9BD" stroke-width="1"/>
  <line x1="561.3333333333333" y1="316" x2="575.3333333333333" y2="330" stroke="#C2C9BD" stroke-width="1"/>
  <line x1="575.3333333333333" y1="316" x2="561.3333333333333" y2="330" stroke="#C2C9BD" stroke-width="1"/>
  <line x1="212.0" y1="402" x2="581.3333333333333" y2="402" stroke="#E0E4DB" stroke-width="1"/>
  <rect x="212.0" y="414" width="16" height="16" rx="4" fill="none" stroke="#C2C9BD" stroke-width="1"/>
  <line x1="216.0" y1="418" x2="224.0" y2="426" stroke="#C2C9BD" stroke-width="1"/>
  <line x1="224.0" y1="418" x2="216.0" y2="426" stroke="#C2C9BD" stroke-width="1"/>
  <text x="236.0" y="427" font-family="Work Sans, Roboto, Arial, sans-serif" font-size="12" font-weight="400" fill="#424940" text-anchor="start">Edited 5 min ago</text>
  <rect x="609.3333333333333" y="296" width="401.3333333333333" height="148" rx="12" fill="#F1F5EC" stroke="none" stroke-width="1"/>
  <text x="625.3333333333333" y="326" font-family="Work Sans, Roboto, Arial, sans-serif" font-size="16" font-weight="700" fill="#181D17" text-anchor="start">Door Creak</text>
  <rect x="625.3333333333333" y="338" width="151.0" height="24" rx="6" fill="#E0E4DB" stroke="none" stroke-width="1"/>
  <rect x="631.3333333333333" y="343" width="14" height="14" rx="4" fill="none" stroke="#C2C9BD" stroke-width="1"/>
  <line x1="635.3333333333333" y1="347" x2="641.3333333333333" y2="353" stroke="#C2C9BD" stroke-width="1"/>
  <line x1="641.3333333333333" y1="347" x2="635.3333333333333" y2="353" stroke="#C2C9BD" stroke-width="1"/>
  <text x="651.3333333333333" y="354" font-family="monospace" font-size="12" fill="#39693B">demo:door_creak</text>
  <text x="950.6666666666665" y="328" font-family="Work Sans, Roboto, Arial, sans-serif" font-size="20" font-weight="400" fill="#424940" text-anchor="middle">⋮</text>
  <rect x="970.6666666666665" y="312" width="22" height="22" rx="4" fill="#FFDAD6" stroke="#C2C9BD" stroke-width="1"/>
  <line x1="974.6666666666665" y1="316" x2="988.6666666666665" y2="330" stroke="#C2C9BD" stroke-width="1"/>
  <line x1="988.6666666666665" y1="316" x2="974.6666666666665" y2="330" stroke="#C2C9BD" stroke-width="1"/>
  <line x1="625.3333333333333" y1="402" x2="994.6666666666665" y2="402" stroke="#E0E4DB" stroke-width="1"/>
  <rect x="625.3333333333333" y="414" width="16" height="16" rx="4" fill="none" stroke="#C2C9BD" stroke-width="1"/>
  <line x1="629.3333333333333" y1="418" x2="637.3333333333333" y2="426" stroke="#C2C9BD" stroke-width="1"/>
  <line x1="637.3333333333333" y1="418" x2="629.3333333333333" y2="426" stroke="#C2C9BD" stroke-width="1"/>
  <text x="649.3333333333333" y="427" font-family="Work Sans, Roboto, Arial, sans-serif" font-size="12" font-weight="400" fill="#424940" text-anchor="start">Edited 5 min ago</text>
</svg>
