<svg xmlns="http://www.w3.org/2000/svg" width="1440" height="900" viewBox="0 0 1440 900">
  <title>16 Dialog – Delete model (type name)</title>
  <rect x="0" y="0" width="1440" height="900" rx="0" fill="#FFFFFF" stroke="none" stroke-width="1"/>
  <rect x="0" y="0" width="1440" height="900" rx="0" fill="#000000" fill-opacity="0.32" stroke="none" stroke-width="1"/>
  <rect x="460.0" y="200.0" width="520" height="500" rx="16" fill="#FFFFFF" stroke="#A1A1AA" stroke-width="1"/>
  <text x="484.0" y="242.0" font-family="Work Sans, Roboto, Arial, sans-serif" font-size="20" font-weight="600" fill="#18181B" text-anchor="start">Delete item</text>
  <text x="948.0" y="242.0" font-family="Work Sans, Roboto, Arial, sans-serif" font-size="22" font-weight="400" fill="#71717A" text-anchor="middle">×</text>
  <line x1="460.0" y1="264.0" x2="980.0" y2="264.0" stroke="#A1A1AA" stroke-width="1"/>
  <line x1="460.0" y1="628.0" x2="980.0" y2="628.0" stroke="#A1A1AA" stroke-width="1"/>
  <rect x="868.0" y="644.0" width="88" height="40" rx="20.0" fill="#B3261E" stroke="#B3261E" stroke-width="1"/>
  <text x="912.0" y="669.0" font-family="Work Sans, Roboto, Arial, sans-serif" font-size="14" font-weight="500" fill="#FFFFFF" text-anchor="middle">Delete</text>
  <text x="816.0" y="669.0" font-family="Work Sans, Roboto, Arial, sans-serif" font-size="14" font-weight="500" fill="#4C662B" text-anchor="middle">Cancel</text>
  <text x="720.0" y="296.0" font-family="Work Sans, Roboto, Arial, sans-serif" font-size="18" font-weight="600" fill="#18181B" text-anchor="middle">Ruby Sword</text>
  <rect x="640.0" y="308.0" width="151.0" height="24" rx="6" fill="#E4E4E7" stroke="none" stroke-width="1"/>
  <rect x="646.0" y="313.0" width="14" height="14" rx="4" fill="none" stroke="#A1A1AA" stroke-width="1"/>
  <line x1="650.0" y1="317.0" x2="656.0" y2="323.0" stroke="#A1A1AA" stroke-width="1"/>
  <line x1="656.0" y1="317.0" x2="650.0" y2="323.0" stroke="#A1A1AA" stroke-width="1"/>
  <text x="666.0" y="324.0" font-family="monospace" font-size="12" fill="#4C662B">demo:ruby_sword</text>
  <line x1="484.0" y1="348.0" x2="956.0" y2="348.0" stroke="#A1A1AA" stroke-width="1"/>
  <rect x="484.0" y="364.0" width="472" height="84" rx="10" fill="#F9DEDC" stroke="#B3261E" stroke-width="1"/>
  <rect x="498.0" y="378.0" width="20" height="20" rx="4" fill="none" stroke="#A1A1AA" stroke-width="1"/>
  <line x1="502.0" y1="382.0" x2="514.0" y2="394.0" stroke="#A1A1AA" stroke-width="1"/>
  <line x1="514.0" y1="382.0" x2="502.0" y2="394.0" stroke="#A1A1AA" stroke-width="1"/>
  <text x="530.0" y="393.0" font-family="Work Sans, Roboto, Arial, sans-serif" font-size="14" font-weight="700" fill="#B3261E" text-anchor="start">This action cannot be undone.</text>
  <text x="530.0" y="413.0" font-family="Work Sans, Roboto, Arial, sans-serif" font-size="12" font-weight="400" fill="#18181B" text-anchor="start">All lore entries and enchantments that belong</text>
  <text x="530.0" y="433.0" font-family="Work Sans, Roboto, Arial, sans-serif" font-size="12" font-weight="400" fill="#18181B" text-anchor="start">to this item will also be deleted.</text>
  <text x="484.0" y="478.0" font-family="Work Sans, Roboto, Arial, sans-serif" font-size="13" font-weight="400" fill="#18181B" text-anchor="start">To confirm, type &quot;Ruby Sword&quot; in the box below</text>
  <rect x="484.0" y="494.0" width="472" height="56" rx="4" fill="#FFFFFF" stroke="#A1A1AA" stroke-width="1"/>
  <rect x="494.0" y="487.0" width="8.0" height="14" rx="0" fill="#FFFFFF" stroke="none" stroke-width="1"/>
  <text x="498.0" y="498.0" font-family="Work Sans, Roboto, Arial, sans-serif" font-size="12" font-weight="400" fill="#71717A" text-anchor="start"></text>
  <text x="500.0" y="527.0" font-family="Work Sans, Roboto, Arial, sans-serif" font-size="15" font-weight="400" fill="#18181B" text-anchor="start">Ruby Sw</text>
  <rect x="1010" y="330" width="260" height="58" rx="4" fill="#FFF4C2" stroke="#E0C200" stroke-width="1" stroke-dasharray="4 3"/>
  <text x="1020" y="350" font-family="Work Sans, Roboto, Arial, sans-serif" font-size="12" font-weight="400" fill="#5C4B00" text-anchor="start">Delete stays disabled until the</text>
  <text x="1020" y="368" font-family="Work Sans, Roboto, Arial, sans-serif" font-size="12" font-weight="400" fill="#5C4B00" text-anchor="start">typed text matches the name.</text>
</svg>
