<svg xmlns="http://www.w3.org/2000/svg" width="1440" height="900" viewBox="0 0 1440 900">
  <title>40 Dialog – Settings</title>
  <rect x="0" y="0" width="1440" height="900" rx="0" fill="#F7FBF1" stroke="none" stroke-width="1"/>
  <rect x="0" y="0" width="1440" height="900" rx="0" fill="#EBEFE6" stroke="none" stroke-width="1"/>
  <circle cx="40.0" cy="32.0" r="20.0" fill="#F7FBF1" stroke="#C2C9BD"/>
  <rect x="31.0" y="23.0" width="18" height="18" rx="4" fill="none" stroke="#C2C9BD" stroke-width="1"/>
  <line x1="35.0" y1="27.0" x2="45.0" y2="37.0" stroke="#C2C9BD" stroke-width="1"/>
  <line x1="45.0" y1="27.0" x2="35.0" y2="37.0" stroke="#C2C9BD" stroke-width="1"/>
  <rect x="400.0" y="12" width="640" height="40" rx="20" fill="#F7FBF1" stroke="#C2C9BD" stroke-width="1"/>
  <rect x="414.0" y="22" width="20" height="20" rx="4" fill="none" stroke="#C2C9BD" stroke-width="1"/>
  <line x1="418.0" y1="26" x2="430.0" y2="38" stroke="#C2C9BD" stroke-width="1"/>
  <line x1="430.0" y1="26" x2="418.0" y2="38" stroke="#C2C9BD" stroke-width="1"/>
  <text x="446.0" y="37" font-family="Work Sans, Roboto, Arial, sans-serif" font-size="15" font-weight="400" fill="#424940" text-anchor="start">Search Items, or ? for more</text>
  <rect x="1006.0" y="22" width="20" height="20" rx="4" fill="none" stroke="#C2C9BD" stroke-width="1"/>
  <line x1="1010.0" y1="26" x2="1022.0" y2="38" stroke="#C2C9BD" stroke-width="1"/>
  <line x1="1022.0" y1="26" x2="1010.0" y2="38" stroke="#C2C9BD" stroke-width="1"/>
  <rect x="1060" y="14" width="196" height="36" rx="18" fill="#F7FBF1" stroke="#C2C9BD" stroke-width="1"/>
  <rect x="1072" y="23" width="18" height="18" rx="4" fill="none" stroke="#C2C9BD" stroke-width="1"/>
  <line x1="1076" y1="27" x2="1086" y2="37" stroke="#C2C9BD" stroke-width="1"/>
  <line x1="1086" y1="27" x2="1076" y2="37" stroke="#C2C9BD" stroke-width="1"/>
  <text x="1098" y="37" font-family="Work Sans, Roboto, Arial, sans-serif" font-size="14" font-weight="500" fill="#181D17" text-anchor="start">Demo Project</text>
  <rect x="1202" y="23" width="42" height="18" rx="9" fill="#BCEBF1" stroke="none" stroke-width="1"/>
  <text x="1223" y="36" font-family="Work Sans, Roboto, Arial, sans-serif" font-size="9" font-weight="700" fill="#181D17" text-anchor="middle">Labor</text>
  <circle cx="1286.0" cy="32.0" r="20.0" fill="#F7FBF1" stroke="#C2C9BD"/>
  <rect x="1277.0" y="23.0" width="18" height="18" rx="4" fill="none" stroke="#C2C9BD" stroke-width="1"/>
  <line x1="1281.0" y1="27.0" x2="1291.0" y2="37.0" stroke="#C2C9BD" stroke-width="1"/>
  <line x1="1291.0" y1="27.0" x2="1281.0" y2="37.0" stroke="#C2C9BD" stroke-width="1"/>
  <circle cx="1334.0" cy="32.0" r="20.0" fill="#F7FBF1" stroke="#C2C9BD"/>
  <rect x="1325.0" y="23.0" width="18" height="18" rx="4" fill="none" stroke="#C2C9BD" stroke-width="1"/>
  <line x1="1329.0" y1="27.0" x2="1339.0" y2="37.0" stroke="#C2C9BD" stroke-width="1"/>
  <line x1="1339.0" y1="27.0" x2="1329.0" y2="37.0" stroke="#C2C9BD" stroke-width="1"/>
  <circle cx="1382.0" cy="32.0" r="20.0" fill="#F7FBF1" stroke="#C2C9BD"/>
  <rect x="1373.0" y="23.0" width="18" height="18" rx="4" fill="none" stroke="#C2C9BD" stroke-width="1"/>
  <line x1="1377.0" y1="27.0" x2="1387.0" y2="37.0" stroke="#C2C9BD" stroke-width="1"/>
  <line x1="1387.0" y1="27.0" x2="1377.0" y2="37.0" stroke="#C2C9BD" stroke-width="1"/>
  <rect x="28" y="90" width="24" height="24" rx="4" fill="none" stroke="#C2C9BD" stroke-width="1"/>
  <line x1="32" y1="94" x2="48" y2="110" stroke="#C2C9BD" stroke-width="1"/>
  <line x1="48" y1="94" x2="32" y2="110" stroke="#C2C9BD" stroke-width="1"/>
  <text x="66" y="107" font-family="Work Sans, Roboto, Arial, sans-serif" font-size="16" font-weight="400" fill="#424940" text-anchor="start">Attributes</text>
  <rect x="12" y="140" width="156" height="52" rx="26" fill="#D5E8CF" stroke="none" stroke-width="1"/>
  <rect x="28" y="154" width="24" height="24" rx="4" fill="#3B4B39" stroke="#C2C9BD" stroke-width="1"/>
  <line x1="32" y1="158" x2="48" y2="174" stroke="#C2C9BD" stroke-width="1"/>
  <line x1="48" y1="158" x2="32" y2="174" stroke="#C2C9BD" stroke-width="1"/>
  <text x="66" y="171" font-family="Work Sans, Roboto, Arial, sans-serif" font-size="16" font-weight="600" fill="#181D17" text-anchor="start">Items</text>
  <rect x="28" y="218" width="24" height="24" rx="4" fill="none" stroke="#C2C9BD" stroke-width="1"/>
  <line x1="32" y1="222" x2="48" y2="238" stroke="#C2C9BD" stroke-width="1"/>
  <line x1="48" y1="222" x2="32" y2="238" stroke="#C2C9BD" stroke-width="1"/>
  <text x="66" y="235" font-family="Work Sans, Roboto, Arial, sans-serif" font-size="16" font-weight="400" fill="#424940" text-anchor="start">Notifications</text>
  <rect x="28" y="282" width="24" height="24" rx="4" fill="none" stroke="#C2C9BD" stroke-width="1"/>
  <line x1="32" y1="286" x2="48" y2="302" stroke="#C2C9BD" stroke-width="1"/>
  <line x1="48" y1="286" x2="32" y2="302" stroke="#C2C9BD" stroke-width="1"/>
  <text x="66" y="299" font-family="Work Sans, Roboto, Arial, sans-serif" font-size="16" font-weight="400" fill="#424940" text-anchor="start">Fonts</text>
  <rect x="28" y="346" width="24" height="24" rx="4" fill="none" stroke="#C2C9BD" stroke-width="1"/>
  <line x1="32" y1="350" x2="48" y2="366" stroke="#C2C9BD" stroke-width="1"/>
  <line x1="48" y1="350" x2="32" y2="366" stroke="#C2C9BD" stroke-width="1"/>
  <text x="66" y="363" font-family="Work Sans, Roboto, Arial, sans-serif" font-size="16" font-weight="400" fill="#424940" text-anchor="start">Sound</text>
  <rect x="180" y="64" width="1280" height="856" rx="16" fill="#F7FBF1" stroke="none" stroke-width="1"/>
  <text x="196" y="103" font-family="Work Sans, Roboto, Arial, sans-serif" font-size="22" font-weight="500" fill="#181D17" text-anchor="start">Items (12)</text>
  <rect x="1344" y="76" width="80" height="40" rx="20.0" fill="#39693B" stroke="#39693B" stroke-width="1"/>
  <rect x="1358" y="87.0" width="18" height="18" rx="4" fill="none" stroke="#C2C9BD" stroke-width="1"/>
  <line x1="1362" y1="91.0" x2="1372" y2="101.0" stroke="#C2C9BD" stroke-width="1"/>
  <line x1="1372" y1="91.0" x2="1362" y2="101.0" stroke="#C2C9BD" stroke-width="1"/>
  <text x="1394.0" y="101.0" font-family="Work Sans, Roboto, Arial, sans-serif" font-size="14" font-weight="500" fill="#FFFFFF" text-anchor="middle">Add</text>
  <rect x="1224" y="76" width="112" height="40" rx="20.0" fill="#D5E8CF" stroke="#D5E8CF" stroke-width="1"/>
  <rect x="1238" y="87.0" width="18" height="18" rx="4" fill="none" stroke="#C2C9BD" stroke-width="1"/>
  <line x1="1242" y1="91.0" x2="1252" y2="101.0" stroke="#C2C9BD" stroke-width="1"/>
  <line x1="1252" y1="91.0" x2="1242" y2="101.0" stroke="#C2C9BD" stroke-width="1"/>
  <text x="1290.0" y="101.0" font-family="Work Sans, Roboto, Arial, sans-serif" font-size="14" font-weight="500" fill="#3B4B39" text-anchor="middle">Refresh</text>
  <rect x="0" y="0" width="1440" height="900" rx="0" fill="#000000" fill-opacity="0.32" stroke="none" stroke-width="1"/>
  <rect x="220.0" y="22" width="1000" height="856" rx="16" fill="#E6E9E0" stroke="none" stroke-width="1"/>
  <rect x="220.0" y="22" width="1000" height="50" rx="16" fill="#BAF0B6" stroke="none" stroke-width="1"/>
  <rect x="220.0" y="52" width="1000" height="20" rx="0" fill="#BAF0B6" stroke="none" stroke-width="1"/>
  <text x="244.0" y="54" font-family="Work Sans, Roboto, Arial, sans-serif" font-size="18" font-weight="700" fill="#215025" text-anchor="start">Settings</text>
  <text x="1192.0" y="55" font-family="Work Sans, Roboto, Arial, sans-serif" font-size="22" font-weight="400" fill="#215025" text-anchor="middle">×</text>
  <text x="244.0" y="107" font-family="Work Sans, Roboto, Arial, sans-serif" font-size="18" font-weight="600" fill="#181D17" text-anchor="start">Project</text>
  <line x1="244.0" y1="119" x2="1196.0" y2="119" stroke="#C2C9BD" stroke-width="1"/>
  <text x="244.0" y="155" font-family="Work Sans, Roboto, Arial, sans-serif" font-size="16" font-weight="500" fill="#181D17" text-anchor="start">Active Project</text>
  <text x="244.0" y="175" font-family="Work Sans, Roboto, Arial, sans-serif" font-size="13" font-weight="400" fill="#424940" text-anchor="start">Select or switch the active project workspace</text>
  <rect x="916.0" y="139" width="280" height="44" rx="4" fill="none" stroke="#72796F" stroke-width="1"/>
  <text x="930.0" y="143" font-family="Work Sans, Roboto, Arial, sans-serif" font-size="12" font-weight="400" fill="#424940" text-anchor="start"></text>
  <text x="932.0" y="166.0" font-family="Work Sans, Roboto, Arial, sans-serif" font-size="15" font-weight="400" fill="#181D17" text-anchor="start">Demo Project (demo)  Labor</text>
  <text x="1174.0" y="166.0" font-family="Work Sans, Roboto, Arial, sans-serif" font-size="16" font-weight="400" fill="#424940" text-anchor="middle">▾</text>
  <text x="244.0" y="215" font-family="Work Sans, Roboto, Arial, sans-serif" font-size="18" font-weight="600" fill="#181D17" text-anchor="start">Display settings</text>
  <line x1="244.0" y1="227" x2="1196.0" y2="227" stroke="#C2C9BD" stroke-width="1"/>
  <text x="244.0" y="263" font-family="Work Sans, Roboto, Arial, sans-serif" font-size="16" font-weight="500" fill="#181D17" text-anchor="start">Use System Theme</text>
  <text x="244.0" y="283" font-family="Work Sans, Roboto, Arial, sans-serif" font-size="13" font-weight="400" fill="#424940" text-anchor="start">Automatically match your system&#x27;s theme settings</text>
  <rect x="1144.0" y="253" width="52" height="32" rx="16" fill="#39693B" stroke="#39693B" stroke-width="2"/>
  <circle cx="1180.0" cy="269" r="12" fill="#FFFFFF" stroke="none"/>
  <text x="244.0" y="323" font-family="Work Sans, Roboto, Arial, sans-serif" font-size="16" font-weight="500" fill="#181D17" text-anchor="start">Dark Mode</text>
  <text x="244.0" y="343" font-family="Work Sans, Roboto, Arial, sans-serif" font-size="13" font-weight="400" fill="#424940" text-anchor="start">Update your preferred theme</text>
  <rect x="1144.0" y="313" width="52" height="32" rx="16" fill="#E0E4DB" stroke="#72796F" stroke-width="2"/>
  <circle cx="1160.0" cy="329" r="8" fill="#72796F" stroke="none"/>
  <text x="244.0" y="383" font-family="Work Sans, Roboto, Arial, sans-serif" font-size="16" font-weight="500" fill="#181D17" text-anchor="start">Font Size</text>
  <text x="244.0" y="403" font-family="Work Sans, Roboto, Arial, sans-serif" font-size="13" font-weight="400" fill="#424940" text-anchor="start">Adjust the text size throughout the app</text>
  <line x1="244.0" y1="439" x2="1196.0" y2="439" stroke="#E0E4DB" stroke-width="4"/>
  <line x1="244.0" y1="439" x2="558.1600000000001" y2="439" stroke="#39693B" stroke-width="4"/>
  <circle cx="558.1600000000001" cy="439" r="9" fill="#39693B" stroke="none"/>
  <text x="558.1600000000001" y="419" font-family="Work Sans, Roboto, Arial, sans-serif" font-size="12" font-weight="600" fill="#181D17" text-anchor="middle">100%</text>
  <text x="244.0" y="479" font-family="Work Sans, Roboto, Arial, sans-serif" font-size="18" font-weight="600" fill="#181D17" text-anchor="start">Accessibility</text>
  <line x1="244.0" y1="491" x2="1196.0" y2="491" stroke="#C2C9BD" stroke-width="1"/>
  <text x="244.0" y="527" font-family="Work Sans, Roboto, Arial, sans-serif" font-size="16" font-weight="500" fill="#181D17" text-anchor="start">For assistance, feel free to explore our wiki</text>
  <text x="244.0" y="547" font-family="Work Sans, Roboto, Arial, sans-serif" font-size="13" font-weight="400" fill="#424940" text-anchor="start">Need some help?</text>
  <rect x="1096.0" y="515" width="100" height="40" rx="20.0" fill="#F7FBF1" stroke="#72796F" stroke-width="1"/>
  <text x="1146.0" y="540.0" font-family="Work Sans, Roboto, Arial, sans-serif" font-size="14" font-weight="500" fill="#39693B" text-anchor="middle">Wiki</text>
  <text x="244.0" y="587" font-family="Work Sans, Roboto, Arial, sans-serif" font-size="18" font-weight="600" fill="#181D17" text-anchor="start">Misc</text>
  <line x1="244.0" y1="599" x2="1196.0" y2="599" stroke="#C2C9BD" stroke-width="1"/>
  <text x="244.0" y="635" font-family="Work Sans, Roboto, Arial, sans-serif" font-size="16" font-weight="500" fill="#181D17" text-anchor="start">App Version</text>
  <text x="244.0" y="655" font-family="Work Sans, Roboto, Arial, sans-serif" font-size="13" font-weight="400" fill="#424940" text-anchor="start">Currently installed version of Stelaris</text>
  <rect x="1116.0" y="627" width="80" height="30" rx="15" fill="#F7FBF1" stroke="#C2C9BD" stroke-width="1"/>
  <text x="1156.0" y="647" font-family="Work Sans, Roboto, Arial, sans-serif" font-size="13" font-weight="400" fill="#181D17" text-anchor="middle">1.5.0</text>
  <text x="244.0" y="691" font-family="Work Sans, Roboto, Arial, sans-serif" font-size="16" font-weight="500" fill="#181D17" text-anchor="start">Found a bug?</text>
  <text x="244.0" y="711" font-family="Work Sans, Roboto, Arial, sans-serif" font-size="13" font-weight="400" fill="#424940" text-anchor="start">When you encounter a bug, please report it!</text>
  <rect x="1096.0" y="679" width="100" height="40" rx="20.0" fill="#F7FBF1" stroke="#72796F" stroke-width="1"/>
  <text x="1146.0" y="704.0" font-family="Work Sans, Roboto, Arial, sans-serif" font-size="14" font-weight="500" fill="#39693B" text-anchor="middle">Report</text>
  <text x="244.0" y="747" font-family="Work Sans, Roboto, Arial, sans-serif" font-size="16" font-weight="500" fill="#181D17" text-anchor="start">Any Suggestion?</text>
  <text x="244.0" y="767" font-family="Work Sans, Roboto, Arial, sans-serif" font-size="13" font-weight="400" fill="#424940" text-anchor="start">Want to suggest a feature, create a ticket!</text>
  <rect x="1096.0" y="735" width="100" height="40" rx="20.0" fill="#F7FBF1" stroke="#72796F" stroke-width="1"/>
  <text x="1146.0" y="760.0" font-family="Work Sans, Roboto, Arial, sans-serif" font-size="14" font-weight="500" fill="#39693B" text-anchor="middle">Suggest</text>
  <text x="244.0" y="803" font-family="Work Sans, Roboto, Arial, sans-serif" font-size="16" font-weight="500" fill="#181D17" text-anchor="start">Third-party software licenses</text>
  <text x="244.0" y="823" font-family="Work Sans, Roboto, Arial, sans-serif" font-size="13" font-weight="400" fill="#424940" text-anchor="start">This application uses the following open-source libraries.</text>
  <rect x="1096.0" y="791" width="100" height="40" rx="20.0" fill="#F7FBF1" stroke="#72796F" stroke-width="1"/>
  <text x="1146.0" y="816.0" font-family="Work Sans, Roboto, Arial, sans-serif" font-size="14" font-weight="500" fill="#39693B" text-anchor="middle">View</text>
  <text x="720" y="864" font-family="Work Sans, Roboto, Arial, sans-serif" font-size="12" font-weight="400" fill="#424940" text-anchor="middle">@2025 Onelitefeather • Made with ❤ by the team</text>
</svg>
