<svg xmlns="http://www.w3.org/2000/svg" width="1440" height="900" viewBox="0 0 1440 900">
  <title>54 Dialog – Model info</title>
  <rect x="0" y="0" width="1440" height="900" rx="0" fill="#F7FBF1" stroke="none" stroke-width="1"/>
  <rect x="0" y="0" width="1440" height="900" rx="0" fill="#000000" fill-opacity="0.32" stroke="none" stroke-width="1"/>
  <rect x="460.0" y="270.0" width="520" height="360" rx="16" fill="#E6E9E0" stroke="none" stroke-width="1"/>
  <text x="484.0" y="312.0" font-family="Work Sans, Roboto, Arial, sans-serif" font-size="20" font-weight="600" fill="#181D17" text-anchor="start">Ruby Sword</text>
  <text x="948.0" y="312.0" font-family="Work Sans, Roboto, Arial, sans-serif" font-size="22" font-weight="400" fill="#424940" text-anchor="middle">×</text>
  <line x1="460.0" y1="334.0" x2="980.0" y2="334.0" stroke="#C2C9BD" stroke-width="1"/>
  <line x1="460.0" y1="558.0" x2="980.0" y2="558.0" stroke="#C2C9BD" stroke-width="1"/>
  <rect x="868.0" y="574.0" width="88" height="40" rx="20.0" fill="#39693B" stroke="#39693B" stroke-width="1"/>
  <text x="912.0" y="599.0" font-family="Work Sans, Roboto, Arial, sans-serif" font-size="14" font-weight="500" fill="#FFFFFF" text-anchor="middle">Close</text>
  <rect x="484.0" y="358.0" width="472" height="48" rx="10" fill="#D5E8CF" stroke="#39693B" stroke-width="1"/>
  <rect x="498.0" y="372.0" width="20" height="20" rx="4" fill="none" stroke="#C2C9BD" stroke-width="1"/>
  <line x1="502.0" y1="376.0" x2="514.0" y2="388.0" stroke="#C2C9BD" stroke-width="1"/>
  <line x1="514.0" y1="376.0" x2="502.0" y2="388.0" stroke="#C2C9BD" stroke-width="1"/>
  <text x="530.0" y="387.0" font-family="Work Sans, Roboto, Arial, sans-serif" font-size="13" font-weight="400" fill="#181D17" text-anchor="start">demo:ruby_sword</text>
  <text x="484.0" y="438.0" font-family="Work Sans, Roboto, Arial, sans-serif" font-size="13" font-weight="400" fill="#424940" text-anchor="start">ID</text>
  <text x="574.0" y="438.0" font-family="Work Sans, Roboto, Arial, sans-serif" font-size="14" font-weight="400" fill="#181D17" text-anchor="start">6650f1c2a9e4b1</text>
  <rect x="932.0" y="423.0" width="20" height="20" rx="4" fill="none" stroke="#C2C9BD" stroke-width="1"/>
  <line x1="936.0" y1="427.0" x2="948.0" y2="439.0" stroke="#C2C9BD" stroke-width="1"/>
  <line x1="948.0" y1="427.0" x2="936.0" y2="439.0" stroke="#C2C9BD" stroke-width="1"/>
  <text x="484.0" y="478.0" font-family="Work Sans, Roboto, Arial, sans-serif" font-size="13" font-weight="400" fill="#424940" text-anchor="start">Created</text>
  <text x="574.0" y="478.0" font-family="Work Sans, Roboto, Arial, sans-serif" font-size="14" font-weight="400" fill="#181D17" text-anchor="start">3 d ago</text>
  <rect x="932.0" y="463.0" width="20" height="20" rx="4" fill="none" stroke="#C2C9BD" stroke-width="1"/>
  <line x1="936.0" y1="467.0" x2="948.0" y2="479.0" stroke="#C2C9BD" stroke-width="1"/>
  <line x1="948.0" y1="467.0" x2="936.0" y2="479.0" stroke="#C2C9BD" stroke-width="1"/>
  <text x="484.0" y="518.0" font-family="Work Sans, Roboto, Arial, sans-serif" font-size="13" font-weight="400" fill="#424940" text-anchor="start">Modified</text>
  <text x="574.0" y="518.0" font-family="Work Sans, Roboto, Arial, sans-serif" font-size="14" font-weight="400" fill="#181D17" text-anchor="start">5 min ago</text>
  <rect x="932.0" y="503.0" width="20" height="20" rx="4" fill="none" stroke="#C2C9BD" stroke-width="1"/>
  <line x1="936.0" y1="507.0" x2="948.0" y2="519.0" stroke="#C2C9BD" stroke-width="1"/>
  <line x1="948.0" y1="507.0" x2="936.0" y2="519.0" stroke="#C2C9BD" stroke-width="1"/>
</svg>
